<mxfile host="app.diagrams.net" agent="Mozilla/5.0 (Windows NT 10.0; Win64; x64) AppleWebKit/537.36 (KHTML, like Gecko) Chrome/133.0.0.0 Safari/537.36" version="26.0.16">
  <diagram id="C5RBs43oDa-KdzZeNtuy" name="Page-1">
    <mxGraphModel dx="2049" dy="696" grid="1" gridSize="10" guides="1" tooltips="1" connect="1" arrows="1" fold="1" page="1" pageScale="1" pageWidth="827" pageHeight="1169" background="#ffffff" math="0" shadow="0">
      <root>
        <mxCell id="WIyWlLk6GJQsqaUBKTNV-0" />
        <mxCell id="WIyWlLk6GJQsqaUBKTNV-1" parent="WIyWlLk6GJQsqaUBKTNV-0" />
        <mxCell id="WIyWlLk6GJQsqaUBKTNV-2" value="" style="rounded=0;html=1;jettySize=auto;orthogonalLoop=1;fontSize=11;endArrow=classic;endFill=1;endSize=8;strokeWidth=1;shadow=0;labelBackgroundColor=none;edgeStyle=orthogonalEdgeStyle;" parent="WIyWlLk6GJQsqaUBKTNV-1" source="Niy4w-8LX7KaWbvNgzIB-4" target="WIyWlLk6GJQsqaUBKTNV-6" edge="1">
          <mxGeometry relative="1" as="geometry">
            <mxPoint x="290" y="320" as="sourcePoint" />
          </mxGeometry>
        </mxCell>
        <mxCell id="Niy4w-8LX7KaWbvNgzIB-6" value="Зарегистрирован?" style="edgeLabel;html=1;align=center;verticalAlign=middle;resizable=0;points=[];" parent="WIyWlLk6GJQsqaUBKTNV-2" vertex="1" connectable="0">
          <mxGeometry x="-0.28" y="3" relative="1" as="geometry">
            <mxPoint x="-3" y="14" as="offset" />
          </mxGeometry>
        </mxCell>
        <mxCell id="WIyWlLk6GJQsqaUBKTNV-4" value="Да" style="rounded=0;html=1;jettySize=auto;orthogonalLoop=1;fontSize=11;endArrow=classic;endFill=1;endSize=8;strokeWidth=1;shadow=0;labelBackgroundColor=none;edgeStyle=orthogonalEdgeStyle;" parent="WIyWlLk6GJQsqaUBKTNV-1" source="WIyWlLk6GJQsqaUBKTNV-6" target="Niy4w-8LX7KaWbvNgzIB-9" edge="1">
          <mxGeometry x="-0.3371" y="10" relative="1" as="geometry">
            <mxPoint as="offset" />
            <mxPoint x="290" y="540" as="targetPoint" />
          </mxGeometry>
        </mxCell>
        <mxCell id="WIyWlLk6GJQsqaUBKTNV-5" value="Нет" style="edgeStyle=orthogonalEdgeStyle;rounded=0;html=1;jettySize=auto;orthogonalLoop=1;fontSize=11;endArrow=classic;endFill=1;endSize=8;strokeWidth=1;shadow=0;labelBackgroundColor=none;" parent="WIyWlLk6GJQsqaUBKTNV-1" source="WIyWlLk6GJQsqaUBKTNV-6" target="Niy4w-8LX7KaWbvNgzIB-8" edge="1">
          <mxGeometry x="-0.7501" y="10" relative="1" as="geometry">
            <mxPoint as="offset" />
            <mxPoint x="420" y="410" as="targetPoint" />
            <Array as="points">
              <mxPoint x="460" y="410" />
            </Array>
          </mxGeometry>
        </mxCell>
        <mxCell id="fE3ZmgLz-F8zHtNALtTM-16" style="edgeStyle=orthogonalEdgeStyle;rounded=0;orthogonalLoop=1;jettySize=auto;html=1;exitX=1;exitY=0.5;exitDx=0;exitDy=0;entryX=0.5;entryY=0;entryDx=0;entryDy=0;" edge="1" parent="WIyWlLk6GJQsqaUBKTNV-1" source="WIyWlLk6GJQsqaUBKTNV-6" target="fE3ZmgLz-F8zHtNALtTM-15">
          <mxGeometry relative="1" as="geometry" />
        </mxCell>
        <mxCell id="WIyWlLk6GJQsqaUBKTNV-6" value="" style="rhombus;whiteSpace=wrap;html=1;shadow=0;fontFamily=Helvetica;fontSize=12;align=center;strokeWidth=1;spacing=6;spacingTop=-4;" parent="WIyWlLk6GJQsqaUBKTNV-1" vertex="1">
          <mxGeometry x="240" y="370" width="100" height="80" as="geometry" />
        </mxCell>
        <mxCell id="fE3ZmgLz-F8zHtNALtTM-135" style="edgeStyle=orthogonalEdgeStyle;rounded=0;orthogonalLoop=1;jettySize=auto;html=1;exitX=0;exitY=0.5;exitDx=0;exitDy=0;entryX=0.5;entryY=0;entryDx=0;entryDy=0;" edge="1" parent="WIyWlLk6GJQsqaUBKTNV-1" source="Niy4w-8LX7KaWbvNgzIB-1" target="fE3ZmgLz-F8zHtNALtTM-123">
          <mxGeometry relative="1" as="geometry">
            <Array as="points">
              <mxPoint x="-350" y="120" />
              <mxPoint x="-350" y="1800" />
              <mxPoint x="250" y="1800" />
            </Array>
          </mxGeometry>
        </mxCell>
        <mxCell id="Niy4w-8LX7KaWbvNgzIB-1" value="Открыть сайт" style="rounded=0;whiteSpace=wrap;html=1;" parent="WIyWlLk6GJQsqaUBKTNV-1" vertex="1">
          <mxGeometry x="230" y="90" width="120" height="60" as="geometry" />
        </mxCell>
        <mxCell id="Niy4w-8LX7KaWbvNgzIB-2" value="" style="ellipse;shape=doubleEllipse;whiteSpace=wrap;html=1;aspect=fixed;fillColor=#000000;" parent="WIyWlLk6GJQsqaUBKTNV-1" vertex="1">
          <mxGeometry x="280" width="20" height="20" as="geometry" />
        </mxCell>
        <mxCell id="Niy4w-8LX7KaWbvNgzIB-3" value="" style="endArrow=classic;html=1;rounded=0;" parent="WIyWlLk6GJQsqaUBKTNV-1" source="Niy4w-8LX7KaWbvNgzIB-2" target="Niy4w-8LX7KaWbvNgzIB-1" edge="1">
          <mxGeometry width="50" height="50" relative="1" as="geometry">
            <mxPoint x="620" y="260" as="sourcePoint" />
            <mxPoint x="670" y="210" as="targetPoint" />
          </mxGeometry>
        </mxCell>
        <mxCell id="Niy4w-8LX7KaWbvNgzIB-4" value="Войти в аккаунт" style="rounded=0;whiteSpace=wrap;html=1;" parent="WIyWlLk6GJQsqaUBKTNV-1" vertex="1">
          <mxGeometry x="230" y="210" width="120" height="60" as="geometry" />
        </mxCell>
        <mxCell id="Niy4w-8LX7KaWbvNgzIB-5" value="" style="endArrow=classic;html=1;rounded=0;" parent="WIyWlLk6GJQsqaUBKTNV-1" source="Niy4w-8LX7KaWbvNgzIB-1" target="Niy4w-8LX7KaWbvNgzIB-4" edge="1">
          <mxGeometry width="50" height="50" relative="1" as="geometry">
            <mxPoint x="410" y="160" as="sourcePoint" />
            <mxPoint x="410" y="230" as="targetPoint" />
          </mxGeometry>
        </mxCell>
        <mxCell id="fE3ZmgLz-F8zHtNALtTM-17" style="edgeStyle=orthogonalEdgeStyle;rounded=0;orthogonalLoop=1;jettySize=auto;html=1;exitX=0.5;exitY=1;exitDx=0;exitDy=0;entryX=1;entryY=0.5;entryDx=0;entryDy=0;" edge="1" parent="WIyWlLk6GJQsqaUBKTNV-1" source="Niy4w-8LX7KaWbvNgzIB-8" target="Niy4w-8LX7KaWbvNgzIB-9">
          <mxGeometry relative="1" as="geometry" />
        </mxCell>
        <mxCell id="Niy4w-8LX7KaWbvNgzIB-8" value="Регистрация" style="rounded=0;whiteSpace=wrap;html=1;" parent="WIyWlLk6GJQsqaUBKTNV-1" vertex="1">
          <mxGeometry x="400" y="450" width="120" height="60" as="geometry" />
        </mxCell>
        <mxCell id="fE3ZmgLz-F8zHtNALtTM-11" style="edgeStyle=orthogonalEdgeStyle;rounded=0;orthogonalLoop=1;jettySize=auto;html=1;exitX=0.5;exitY=1;exitDx=0;exitDy=0;entryX=0.5;entryY=0;entryDx=0;entryDy=0;" edge="1" parent="WIyWlLk6GJQsqaUBKTNV-1" source="Niy4w-8LX7KaWbvNgzIB-9" target="fE3ZmgLz-F8zHtNALtTM-10">
          <mxGeometry relative="1" as="geometry" />
        </mxCell>
        <mxCell id="fE3ZmgLz-F8zHtNALtTM-12" style="edgeStyle=orthogonalEdgeStyle;rounded=0;orthogonalLoop=1;jettySize=auto;html=1;exitX=0.5;exitY=1;exitDx=0;exitDy=0;entryX=0.5;entryY=0;entryDx=0;entryDy=0;" edge="1" parent="WIyWlLk6GJQsqaUBKTNV-1" source="Niy4w-8LX7KaWbvNgzIB-9" target="Niy4w-8LX7KaWbvNgzIB-13">
          <mxGeometry relative="1" as="geometry" />
        </mxCell>
        <mxCell id="Niy4w-8LX7KaWbvNgzIB-9" value="Авторизация" style="rounded=0;whiteSpace=wrap;html=1;" parent="WIyWlLk6GJQsqaUBKTNV-1" vertex="1">
          <mxGeometry x="230" y="520" width="120" height="60" as="geometry" />
        </mxCell>
        <mxCell id="fE3ZmgLz-F8zHtNALtTM-141" style="edgeStyle=orthogonalEdgeStyle;rounded=0;orthogonalLoop=1;jettySize=auto;html=1;exitX=0.5;exitY=1;exitDx=0;exitDy=0;" edge="1" parent="WIyWlLk6GJQsqaUBKTNV-1" source="Niy4w-8LX7KaWbvNgzIB-13">
          <mxGeometry relative="1" as="geometry">
            <mxPoint x="250" y="1926.122523716518" as="targetPoint" />
            <Array as="points">
              <mxPoint x="600" y="880" />
              <mxPoint x="1250" y="880" />
              <mxPoint x="1250" y="1800" />
              <mxPoint x="250" y="1800" />
            </Array>
          </mxGeometry>
        </mxCell>
        <mxCell id="Niy4w-8LX7KaWbvNgzIB-13" value="Редактировать профиль" style="rounded=0;whiteSpace=wrap;html=1;" parent="WIyWlLk6GJQsqaUBKTNV-1" vertex="1">
          <mxGeometry x="540" y="720" width="120" height="60" as="geometry" />
        </mxCell>
        <mxCell id="fE3ZmgLz-F8zHtNALtTM-4" value="Нет" style="edgeStyle=orthogonalEdgeStyle;rounded=0;orthogonalLoop=1;jettySize=auto;html=1;exitX=0;exitY=0.5;exitDx=0;exitDy=0;entryX=1;entryY=0.5;entryDx=0;entryDy=0;" edge="1" parent="WIyWlLk6GJQsqaUBKTNV-1" source="Niy4w-8LX7KaWbvNgzIB-16" target="Niy4w-8LX7KaWbvNgzIB-22">
          <mxGeometry x="-0.0909" y="-10" relative="1" as="geometry">
            <mxPoint as="offset" />
          </mxGeometry>
        </mxCell>
        <mxCell id="fE3ZmgLz-F8zHtNALtTM-8" value="Оформлена&lt;div&gt;&amp;nbsp;подписка?&lt;/div&gt;" style="edgeStyle=orthogonalEdgeStyle;rounded=0;orthogonalLoop=1;jettySize=auto;html=1;exitX=0.5;exitY=0;exitDx=0;exitDy=0;endArrow=none;startFill=1;startArrow=classic;" edge="1" parent="WIyWlLk6GJQsqaUBKTNV-1" source="Niy4w-8LX7KaWbvNgzIB-16">
          <mxGeometry x="0.0063" relative="1" as="geometry">
            <mxPoint x="290" y="640" as="targetPoint" />
            <mxPoint as="offset" />
          </mxGeometry>
        </mxCell>
        <mxCell id="Niy4w-8LX7KaWbvNgzIB-16" value="" style="rhombus;whiteSpace=wrap;html=1;shadow=0;fontFamily=Helvetica;fontSize=12;align=center;strokeWidth=1;spacing=6;spacingTop=-4;" parent="WIyWlLk6GJQsqaUBKTNV-1" vertex="1">
          <mxGeometry x="240" y="720" width="100" height="80" as="geometry" />
        </mxCell>
        <mxCell id="fE3ZmgLz-F8zHtNALtTM-134" style="edgeStyle=orthogonalEdgeStyle;rounded=0;orthogonalLoop=1;jettySize=auto;html=1;exitX=0;exitY=0.5;exitDx=0;exitDy=0;entryX=0.5;entryY=0;entryDx=0;entryDy=0;" edge="1" parent="WIyWlLk6GJQsqaUBKTNV-1" source="Niy4w-8LX7KaWbvNgzIB-22" target="fE3ZmgLz-F8zHtNALtTM-123">
          <mxGeometry relative="1" as="geometry">
            <Array as="points">
              <mxPoint x="-350" y="760" />
              <mxPoint x="-350" y="1800" />
              <mxPoint x="250" y="1800" />
            </Array>
          </mxGeometry>
        </mxCell>
        <mxCell id="Niy4w-8LX7KaWbvNgzIB-22" value="Купить подписку" style="rounded=0;whiteSpace=wrap;html=1;" parent="WIyWlLk6GJQsqaUBKTNV-1" vertex="1">
          <mxGeometry x="20" y="730" width="120" height="60" as="geometry" />
        </mxCell>
        <mxCell id="fE3ZmgLz-F8zHtNALtTM-40" style="edgeStyle=orthogonalEdgeStyle;rounded=0;orthogonalLoop=1;jettySize=auto;html=1;exitX=0;exitY=0.5;exitDx=0;exitDy=0;" edge="1" parent="WIyWlLk6GJQsqaUBKTNV-1" source="Niy4w-8LX7KaWbvNgzIB-31" target="fE3ZmgLz-F8zHtNALtTM-39">
          <mxGeometry relative="1" as="geometry" />
        </mxCell>
        <mxCell id="fE3ZmgLz-F8zHtNALtTM-41" value="Оператор" style="edgeStyle=orthogonalEdgeStyle;rounded=0;orthogonalLoop=1;jettySize=auto;html=1;exitX=0;exitY=0.5;exitDx=0;exitDy=0;entryX=0.5;entryY=0;entryDx=0;entryDy=0;" edge="1" parent="WIyWlLk6GJQsqaUBKTNV-1" source="Niy4w-8LX7KaWbvNgzIB-31" target="fE3ZmgLz-F8zHtNALtTM-2">
          <mxGeometry x="-0.1517" y="-10" relative="1" as="geometry">
            <mxPoint as="offset" />
          </mxGeometry>
        </mxCell>
        <mxCell id="fE3ZmgLz-F8zHtNALtTM-52" style="edgeStyle=orthogonalEdgeStyle;rounded=0;orthogonalLoop=1;jettySize=auto;html=1;entryX=0.5;entryY=0;entryDx=0;entryDy=0;" edge="1" parent="WIyWlLk6GJQsqaUBKTNV-1" source="Niy4w-8LX7KaWbvNgzIB-31" target="fE3ZmgLz-F8zHtNALtTM-51">
          <mxGeometry relative="1" as="geometry" />
        </mxCell>
        <mxCell id="fE3ZmgLz-F8zHtNALtTM-67" value="Администратор" style="edgeStyle=orthogonalEdgeStyle;rounded=0;orthogonalLoop=1;jettySize=auto;html=1;exitX=1;exitY=0.5;exitDx=0;exitDy=0;entryX=0.5;entryY=0;entryDx=0;entryDy=0;" edge="1" parent="WIyWlLk6GJQsqaUBKTNV-1" source="Niy4w-8LX7KaWbvNgzIB-31" target="fE3ZmgLz-F8zHtNALtTM-65">
          <mxGeometry x="-0.2667" y="10" relative="1" as="geometry">
            <mxPoint as="offset" />
          </mxGeometry>
        </mxCell>
        <mxCell id="fE3ZmgLz-F8zHtNALtTM-110" style="edgeStyle=orthogonalEdgeStyle;rounded=0;orthogonalLoop=1;jettySize=auto;html=1;exitX=1;exitY=0.5;exitDx=0;exitDy=0;entryX=0.5;entryY=0;entryDx=0;entryDy=0;" edge="1" parent="WIyWlLk6GJQsqaUBKTNV-1" source="Niy4w-8LX7KaWbvNgzIB-31" target="fE3ZmgLz-F8zHtNALtTM-53">
          <mxGeometry relative="1" as="geometry" />
        </mxCell>
        <mxCell id="Niy4w-8LX7KaWbvNgzIB-31" value="" style="rhombus;whiteSpace=wrap;html=1;shadow=0;fontFamily=Helvetica;fontSize=12;align=center;strokeWidth=1;spacing=6;spacingTop=-4;" parent="WIyWlLk6GJQsqaUBKTNV-1" vertex="1">
          <mxGeometry x="240" y="900" width="100" height="80" as="geometry" />
        </mxCell>
        <mxCell id="Niy4w-8LX7KaWbvNgzIB-32" value="" style="endArrow=classic;html=1;rounded=0;" parent="WIyWlLk6GJQsqaUBKTNV-1" source="Niy4w-8LX7KaWbvNgzIB-16" target="Niy4w-8LX7KaWbvNgzIB-31" edge="1">
          <mxGeometry width="50" height="50" relative="1" as="geometry">
            <mxPoint x="420" y="710" as="sourcePoint" />
            <mxPoint x="470" y="660" as="targetPoint" />
          </mxGeometry>
        </mxCell>
        <mxCell id="Niy4w-8LX7KaWbvNgzIB-33" value="Да&lt;br&gt;Какая роль?" style="edgeLabel;html=1;align=center;verticalAlign=middle;resizable=0;points=[];" parent="Niy4w-8LX7KaWbvNgzIB-32" vertex="1" connectable="0">
          <mxGeometry x="-0.0661" y="3" relative="1" as="geometry">
            <mxPoint x="-3" y="3" as="offset" />
          </mxGeometry>
        </mxCell>
        <mxCell id="fE3ZmgLz-F8zHtNALtTM-1" value="" style="ellipse;html=1;shape=endState;fillColor=#000000;strokeColor=#000000;" vertex="1" parent="WIyWlLk6GJQsqaUBKTNV-1">
          <mxGeometry x="235" y="1980" width="30" height="30" as="geometry" />
        </mxCell>
        <mxCell id="fE3ZmgLz-F8zHtNALtTM-18" style="edgeStyle=orthogonalEdgeStyle;rounded=0;orthogonalLoop=1;jettySize=auto;html=1;exitX=0.5;exitY=1;exitDx=0;exitDy=0;" edge="1" parent="WIyWlLk6GJQsqaUBKTNV-1" source="fE3ZmgLz-F8zHtNALtTM-2" target="fE3ZmgLz-F8zHtNALtTM-19">
          <mxGeometry relative="1" as="geometry">
            <mxPoint x="109.66666666666663" y="1130" as="targetPoint" />
          </mxGeometry>
        </mxCell>
        <mxCell id="fE3ZmgLz-F8zHtNALtTM-163" style="edgeStyle=orthogonalEdgeStyle;rounded=0;orthogonalLoop=1;jettySize=auto;html=1;exitX=0.5;exitY=1;exitDx=0;exitDy=0;endArrow=none;startFill=0;" edge="1" parent="WIyWlLk6GJQsqaUBKTNV-1" source="fE3ZmgLz-F8zHtNALtTM-2">
          <mxGeometry relative="1" as="geometry">
            <mxPoint x="-250" y="1170" as="targetPoint" />
          </mxGeometry>
        </mxCell>
        <mxCell id="fE3ZmgLz-F8zHtNALtTM-2" value="Просмотреть диалоги с клиентами" style="rounded=0;whiteSpace=wrap;html=1;" vertex="1" parent="WIyWlLk6GJQsqaUBKTNV-1">
          <mxGeometry x="-160" y="1010" width="120" height="60" as="geometry" />
        </mxCell>
        <mxCell id="fE3ZmgLz-F8zHtNALtTM-142" style="edgeStyle=orthogonalEdgeStyle;rounded=0;orthogonalLoop=1;jettySize=auto;html=1;exitX=0.5;exitY=1;exitDx=0;exitDy=0;" edge="1" parent="WIyWlLk6GJQsqaUBKTNV-1" source="fE3ZmgLz-F8zHtNALtTM-10">
          <mxGeometry relative="1" as="geometry">
            <mxPoint x="250" y="1932.6529366629463" as="targetPoint" />
            <Array as="points">
              <mxPoint x="440" y="880" />
              <mxPoint x="1250" y="880" />
              <mxPoint x="1250" y="1800" />
              <mxPoint x="250" y="1800" />
            </Array>
          </mxGeometry>
        </mxCell>
        <mxCell id="fE3ZmgLz-F8zHtNALtTM-10" value="Просмотр страниц для авторизированных пользователей" style="rounded=0;whiteSpace=wrap;html=1;" vertex="1" parent="WIyWlLk6GJQsqaUBKTNV-1">
          <mxGeometry x="380" y="720" width="120" height="60" as="geometry" />
        </mxCell>
        <mxCell id="fE3ZmgLz-F8zHtNALtTM-144" style="edgeStyle=orthogonalEdgeStyle;rounded=0;orthogonalLoop=1;jettySize=auto;html=1;exitX=1;exitY=0.5;exitDx=0;exitDy=0;endArrow=none;startFill=0;" edge="1" parent="WIyWlLk6GJQsqaUBKTNV-1" source="fE3ZmgLz-F8zHtNALtTM-15">
          <mxGeometry relative="1" as="geometry">
            <mxPoint x="1250" y="1800" as="targetPoint" />
          </mxGeometry>
        </mxCell>
        <mxCell id="fE3ZmgLz-F8zHtNALtTM-15" value="Просмотр страниц для неавторизированных пользователей" style="rounded=0;whiteSpace=wrap;html=1;" vertex="1" parent="WIyWlLk6GJQsqaUBKTNV-1">
          <mxGeometry x="537" y="450" width="120" height="60" as="geometry" />
        </mxCell>
        <mxCell id="fE3ZmgLz-F8zHtNALtTM-46" style="edgeStyle=orthogonalEdgeStyle;rounded=0;orthogonalLoop=1;jettySize=auto;html=1;exitX=1;exitY=0.5;exitDx=0;exitDy=0;entryX=0;entryY=0.5;entryDx=0;entryDy=0;" edge="1" parent="WIyWlLk6GJQsqaUBKTNV-1" source="fE3ZmgLz-F8zHtNALtTM-19" target="fE3ZmgLz-F8zHtNALtTM-44">
          <mxGeometry relative="1" as="geometry" />
        </mxCell>
        <mxCell id="fE3ZmgLz-F8zHtNALtTM-161" style="edgeStyle=orthogonalEdgeStyle;rounded=0;orthogonalLoop=1;jettySize=auto;html=1;exitX=0.5;exitY=1;exitDx=0;exitDy=0;endArrow=none;startFill=0;" edge="1" parent="WIyWlLk6GJQsqaUBKTNV-1" source="fE3ZmgLz-F8zHtNALtTM-19">
          <mxGeometry relative="1" as="geometry">
            <mxPoint x="-100.11764705882342" y="1259.9999999999998" as="targetPoint" />
          </mxGeometry>
        </mxCell>
        <mxCell id="fE3ZmgLz-F8zHtNALtTM-19" value="Ответить на сообщение" style="rounded=0;whiteSpace=wrap;html=1;" vertex="1" parent="WIyWlLk6GJQsqaUBKTNV-1">
          <mxGeometry x="-160" y="1160" width="120" height="60" as="geometry" />
        </mxCell>
        <mxCell id="fE3ZmgLz-F8zHtNALtTM-47" style="edgeStyle=orthogonalEdgeStyle;rounded=0;orthogonalLoop=1;jettySize=auto;html=1;exitX=0.5;exitY=1;exitDx=0;exitDy=0;entryX=0.5;entryY=0;entryDx=0;entryDy=0;" edge="1" parent="WIyWlLk6GJQsqaUBKTNV-1" source="fE3ZmgLz-F8zHtNALtTM-39" target="fE3ZmgLz-F8zHtNALtTM-44">
          <mxGeometry relative="1" as="geometry">
            <Array as="points">
              <mxPoint x="220" y="1120" />
              <mxPoint x="70" y="1120" />
            </Array>
          </mxGeometry>
        </mxCell>
        <mxCell id="fE3ZmgLz-F8zHtNALtTM-48" style="edgeStyle=orthogonalEdgeStyle;rounded=0;orthogonalLoop=1;jettySize=auto;html=1;exitX=0.5;exitY=1;exitDx=0;exitDy=0;entryX=0.5;entryY=0;entryDx=0;entryDy=0;" edge="1" parent="WIyWlLk6GJQsqaUBKTNV-1" source="fE3ZmgLz-F8zHtNALtTM-39" target="fE3ZmgLz-F8zHtNALtTM-45">
          <mxGeometry relative="1" as="geometry">
            <mxPoint x="300" y="1160" as="targetPoint" />
          </mxGeometry>
        </mxCell>
        <mxCell id="fE3ZmgLz-F8zHtNALtTM-137" style="edgeStyle=orthogonalEdgeStyle;rounded=0;orthogonalLoop=1;jettySize=auto;html=1;exitX=0.5;exitY=1;exitDx=0;exitDy=0;endArrow=none;startFill=0;" edge="1" parent="WIyWlLk6GJQsqaUBKTNV-1" source="fE3ZmgLz-F8zHtNALtTM-39">
          <mxGeometry relative="1" as="geometry">
            <mxPoint x="-250" y="1160" as="targetPoint" />
            <Array as="points">
              <mxPoint x="220" y="1260" />
              <mxPoint x="-250" y="1260" />
            </Array>
          </mxGeometry>
        </mxCell>
        <mxCell id="fE3ZmgLz-F8zHtNALtTM-162" style="edgeStyle=orthogonalEdgeStyle;rounded=0;orthogonalLoop=1;jettySize=auto;html=1;exitX=0.5;exitY=1;exitDx=0;exitDy=0;endArrow=none;startFill=0;" edge="1" parent="WIyWlLk6GJQsqaUBKTNV-1" source="fE3ZmgLz-F8zHtNALtTM-39">
          <mxGeometry relative="1" as="geometry">
            <mxPoint x="150" y="1260" as="targetPoint" />
            <Array as="points">
              <mxPoint x="220" y="1120" />
              <mxPoint x="310" y="1120" />
              <mxPoint x="310" y="1260" />
              <mxPoint x="150" y="1260" />
            </Array>
          </mxGeometry>
        </mxCell>
        <mxCell id="fE3ZmgLz-F8zHtNALtTM-39" value="Просмотр сделок" style="rounded=0;whiteSpace=wrap;html=1;" vertex="1" parent="WIyWlLk6GJQsqaUBKTNV-1">
          <mxGeometry x="160" y="1010" width="120" height="60" as="geometry" />
        </mxCell>
        <mxCell id="fE3ZmgLz-F8zHtNALtTM-160" style="edgeStyle=orthogonalEdgeStyle;rounded=0;orthogonalLoop=1;jettySize=auto;html=1;exitX=0.5;exitY=1;exitDx=0;exitDy=0;endArrow=none;startFill=0;" edge="1" parent="WIyWlLk6GJQsqaUBKTNV-1" source="fE3ZmgLz-F8zHtNALtTM-44">
          <mxGeometry relative="1" as="geometry">
            <mxPoint x="70" y="1260" as="targetPoint" />
          </mxGeometry>
        </mxCell>
        <mxCell id="fE3ZmgLz-F8zHtNALtTM-44" value="Создать сделку" style="rounded=0;whiteSpace=wrap;html=1;" vertex="1" parent="WIyWlLk6GJQsqaUBKTNV-1">
          <mxGeometry x="10" y="1160" width="120" height="60" as="geometry" />
        </mxCell>
        <mxCell id="fE3ZmgLz-F8zHtNALtTM-45" value="Изменить статус сделки на доступный оператору" style="rounded=0;whiteSpace=wrap;html=1;" vertex="1" parent="WIyWlLk6GJQsqaUBKTNV-1">
          <mxGeometry x="160" y="1160" width="120" height="60" as="geometry" />
        </mxCell>
        <mxCell id="fE3ZmgLz-F8zHtNALtTM-133" style="edgeStyle=orthogonalEdgeStyle;rounded=0;orthogonalLoop=1;jettySize=auto;html=1;exitX=0.5;exitY=1;exitDx=0;exitDy=0;" edge="1" parent="WIyWlLk6GJQsqaUBKTNV-1" source="fE3ZmgLz-F8zHtNALtTM-51" target="fE3ZmgLz-F8zHtNALtTM-123">
          <mxGeometry relative="1" as="geometry">
            <Array as="points">
              <mxPoint x="-250" y="1800" />
              <mxPoint x="250" y="1800" />
            </Array>
          </mxGeometry>
        </mxCell>
        <mxCell id="fE3ZmgLz-F8zHtNALtTM-51" value="Просмотр данных компании" style="rounded=0;whiteSpace=wrap;html=1;" vertex="1" parent="WIyWlLk6GJQsqaUBKTNV-1">
          <mxGeometry x="-310" y="1010" width="120" height="60" as="geometry" />
        </mxCell>
        <mxCell id="fE3ZmgLz-F8zHtNALtTM-59" style="edgeStyle=orthogonalEdgeStyle;rounded=0;orthogonalLoop=1;jettySize=auto;html=1;exitX=0.5;exitY=1;exitDx=0;exitDy=0;entryX=0.5;entryY=0;entryDx=0;entryDy=0;" edge="1" parent="WIyWlLk6GJQsqaUBKTNV-1" source="fE3ZmgLz-F8zHtNALtTM-53" target="fE3ZmgLz-F8zHtNALtTM-55">
          <mxGeometry relative="1" as="geometry" />
        </mxCell>
        <mxCell id="fE3ZmgLz-F8zHtNALtTM-66" style="edgeStyle=orthogonalEdgeStyle;rounded=0;orthogonalLoop=1;jettySize=auto;html=1;exitX=0.5;exitY=1;exitDx=0;exitDy=0;" edge="1" parent="WIyWlLk6GJQsqaUBKTNV-1" source="fE3ZmgLz-F8zHtNALtTM-53" target="fE3ZmgLz-F8zHtNALtTM-56">
          <mxGeometry relative="1" as="geometry" />
        </mxCell>
        <mxCell id="fE3ZmgLz-F8zHtNALtTM-86" style="edgeStyle=orthogonalEdgeStyle;rounded=0;orthogonalLoop=1;jettySize=auto;html=1;exitX=0.5;exitY=1;exitDx=0;exitDy=0;" edge="1" parent="WIyWlLk6GJQsqaUBKTNV-1" source="fE3ZmgLz-F8zHtNALtTM-53" target="fE3ZmgLz-F8zHtNALtTM-61">
          <mxGeometry relative="1" as="geometry" />
        </mxCell>
        <mxCell id="fE3ZmgLz-F8zHtNALtTM-92" style="edgeStyle=orthogonalEdgeStyle;rounded=0;orthogonalLoop=1;jettySize=auto;html=1;exitX=0.5;exitY=1;exitDx=0;exitDy=0;" edge="1" parent="WIyWlLk6GJQsqaUBKTNV-1" source="fE3ZmgLz-F8zHtNALtTM-53" target="fE3ZmgLz-F8zHtNALtTM-91">
          <mxGeometry relative="1" as="geometry" />
        </mxCell>
        <mxCell id="fE3ZmgLz-F8zHtNALtTM-53" value="Просмотр сделок" style="rounded=0;whiteSpace=wrap;html=1;" vertex="1" parent="WIyWlLk6GJQsqaUBKTNV-1">
          <mxGeometry x="340" y="1150" width="120" height="60" as="geometry" />
        </mxCell>
        <mxCell id="fE3ZmgLz-F8zHtNALtTM-130" style="edgeStyle=orthogonalEdgeStyle;rounded=0;orthogonalLoop=1;jettySize=auto;html=1;exitX=0.5;exitY=1;exitDx=0;exitDy=0;entryX=0.5;entryY=0;entryDx=0;entryDy=0;" edge="1" parent="WIyWlLk6GJQsqaUBKTNV-1" source="fE3ZmgLz-F8zHtNALtTM-55" target="fE3ZmgLz-F8zHtNALtTM-123">
          <mxGeometry relative="1" as="geometry" />
        </mxCell>
        <mxCell id="fE3ZmgLz-F8zHtNALtTM-55" value="Создать сделку" style="rounded=0;whiteSpace=wrap;html=1;" vertex="1" parent="WIyWlLk6GJQsqaUBKTNV-1">
          <mxGeometry x="190" y="1380" width="120" height="60" as="geometry" />
        </mxCell>
        <mxCell id="fE3ZmgLz-F8zHtNALtTM-164" style="edgeStyle=orthogonalEdgeStyle;rounded=0;orthogonalLoop=1;jettySize=auto;html=1;exitX=0.5;exitY=1;exitDx=0;exitDy=0;endArrow=none;startFill=0;" edge="1" parent="WIyWlLk6GJQsqaUBKTNV-1" source="fE3ZmgLz-F8zHtNALtTM-56">
          <mxGeometry relative="1" as="geometry">
            <mxPoint x="250" y="1800" as="targetPoint" />
            <Array as="points">
              <mxPoint x="400" y="1560" />
              <mxPoint x="251" y="1560" />
              <mxPoint x="251" y="1800" />
            </Array>
          </mxGeometry>
        </mxCell>
        <mxCell id="fE3ZmgLz-F8zHtNALtTM-56" value="Перенаправить сделку другому оператору" style="rounded=0;whiteSpace=wrap;html=1;" vertex="1" parent="WIyWlLk6GJQsqaUBKTNV-1">
          <mxGeometry x="340" y="1380" width="120" height="60" as="geometry" />
        </mxCell>
        <mxCell id="fE3ZmgLz-F8zHtNALtTM-131" style="edgeStyle=orthogonalEdgeStyle;rounded=0;orthogonalLoop=1;jettySize=auto;html=1;exitX=0.5;exitY=1;exitDx=0;exitDy=0;entryX=0.5;entryY=0;entryDx=0;entryDy=0;" edge="1" parent="WIyWlLk6GJQsqaUBKTNV-1" source="fE3ZmgLz-F8zHtNALtTM-61" target="fE3ZmgLz-F8zHtNALtTM-123">
          <mxGeometry relative="1" as="geometry">
            <Array as="points">
              <mxPoint x="100" y="1800" />
              <mxPoint x="250" y="1800" />
            </Array>
          </mxGeometry>
        </mxCell>
        <mxCell id="fE3ZmgLz-F8zHtNALtTM-61" value="Изменить статус сделки" style="rounded=0;whiteSpace=wrap;html=1;" vertex="1" parent="WIyWlLk6GJQsqaUBKTNV-1">
          <mxGeometry x="40" y="1380" width="120" height="60" as="geometry" />
        </mxCell>
        <mxCell id="fE3ZmgLz-F8zHtNALtTM-72" style="edgeStyle=orthogonalEdgeStyle;rounded=0;orthogonalLoop=1;jettySize=auto;html=1;exitX=0.5;exitY=1;exitDx=0;exitDy=0;entryX=0.5;entryY=0;entryDx=0;entryDy=0;" edge="1" parent="WIyWlLk6GJQsqaUBKTNV-1" source="fE3ZmgLz-F8zHtNALtTM-65" target="fE3ZmgLz-F8zHtNALtTM-71">
          <mxGeometry relative="1" as="geometry" />
        </mxCell>
        <mxCell id="fE3ZmgLz-F8zHtNALtTM-75" style="edgeStyle=orthogonalEdgeStyle;rounded=0;orthogonalLoop=1;jettySize=auto;html=1;exitX=0.5;exitY=1;exitDx=0;exitDy=0;entryX=0.5;entryY=0;entryDx=0;entryDy=0;" edge="1" parent="WIyWlLk6GJQsqaUBKTNV-1" source="fE3ZmgLz-F8zHtNALtTM-65" target="fE3ZmgLz-F8zHtNALtTM-74">
          <mxGeometry relative="1" as="geometry" />
        </mxCell>
        <mxCell id="fE3ZmgLz-F8zHtNALtTM-115" style="edgeStyle=orthogonalEdgeStyle;rounded=0;orthogonalLoop=1;jettySize=auto;html=1;exitX=0;exitY=0.5;exitDx=0;exitDy=0;entryX=0.5;entryY=0;entryDx=0;entryDy=0;" edge="1" parent="WIyWlLk6GJQsqaUBKTNV-1" source="fE3ZmgLz-F8zHtNALtTM-65" target="fE3ZmgLz-F8zHtNALtTM-116">
          <mxGeometry relative="1" as="geometry">
            <mxPoint x="480" y="1530" as="targetPoint" />
          </mxGeometry>
        </mxCell>
        <mxCell id="fE3ZmgLz-F8zHtNALtTM-65" value="Просмотр данных компании" style="rounded=0;whiteSpace=wrap;html=1;" vertex="1" parent="WIyWlLk6GJQsqaUBKTNV-1">
          <mxGeometry x="530" y="990" width="120" height="60" as="geometry" />
        </mxCell>
        <mxCell id="fE3ZmgLz-F8zHtNALtTM-81" style="edgeStyle=orthogonalEdgeStyle;rounded=0;orthogonalLoop=1;jettySize=auto;html=1;exitX=0.5;exitY=1;exitDx=0;exitDy=0;entryX=0.5;entryY=0;entryDx=0;entryDy=0;" edge="1" parent="WIyWlLk6GJQsqaUBKTNV-1" source="fE3ZmgLz-F8zHtNALtTM-71" target="fE3ZmgLz-F8zHtNALtTM-78">
          <mxGeometry relative="1" as="geometry" />
        </mxCell>
        <mxCell id="fE3ZmgLz-F8zHtNALtTM-82" style="edgeStyle=orthogonalEdgeStyle;rounded=0;orthogonalLoop=1;jettySize=auto;html=1;exitX=0.5;exitY=1;exitDx=0;exitDy=0;entryX=0.5;entryY=0;entryDx=0;entryDy=0;" edge="1" parent="WIyWlLk6GJQsqaUBKTNV-1" source="fE3ZmgLz-F8zHtNALtTM-71" target="fE3ZmgLz-F8zHtNALtTM-79">
          <mxGeometry relative="1" as="geometry" />
        </mxCell>
        <mxCell id="fE3ZmgLz-F8zHtNALtTM-97" style="edgeStyle=orthogonalEdgeStyle;rounded=0;orthogonalLoop=1;jettySize=auto;html=1;exitX=0.5;exitY=1;exitDx=0;exitDy=0;" edge="1" parent="WIyWlLk6GJQsqaUBKTNV-1" source="fE3ZmgLz-F8zHtNALtTM-71" target="fE3ZmgLz-F8zHtNALtTM-96">
          <mxGeometry relative="1" as="geometry">
            <Array as="points">
              <mxPoint x="560" y="1330" />
              <mxPoint x="560" y="1330" />
            </Array>
          </mxGeometry>
        </mxCell>
        <mxCell id="fE3ZmgLz-F8zHtNALtTM-71" value="Просмотр данных подписки" style="rounded=0;whiteSpace=wrap;html=1;" vertex="1" parent="WIyWlLk6GJQsqaUBKTNV-1">
          <mxGeometry x="500" y="1160" width="120" height="60" as="geometry" />
        </mxCell>
        <mxCell id="fE3ZmgLz-F8zHtNALtTM-87" style="edgeStyle=orthogonalEdgeStyle;rounded=0;orthogonalLoop=1;jettySize=auto;html=1;exitX=0.5;exitY=1;exitDx=0;exitDy=0;entryX=0.5;entryY=0;entryDx=0;entryDy=0;" edge="1" parent="WIyWlLk6GJQsqaUBKTNV-1" source="fE3ZmgLz-F8zHtNALtTM-74" target="fE3ZmgLz-F8zHtNALtTM-83">
          <mxGeometry relative="1" as="geometry" />
        </mxCell>
        <mxCell id="fE3ZmgLz-F8zHtNALtTM-89" style="edgeStyle=orthogonalEdgeStyle;rounded=0;orthogonalLoop=1;jettySize=auto;html=1;exitX=0.5;exitY=1;exitDx=0;exitDy=0;" edge="1" parent="WIyWlLk6GJQsqaUBKTNV-1" source="fE3ZmgLz-F8zHtNALtTM-74" target="fE3ZmgLz-F8zHtNALtTM-88">
          <mxGeometry relative="1" as="geometry" />
        </mxCell>
        <mxCell id="fE3ZmgLz-F8zHtNALtTM-151" style="edgeStyle=orthogonalEdgeStyle;rounded=0;orthogonalLoop=1;jettySize=auto;html=1;exitX=0.5;exitY=1;exitDx=0;exitDy=0;entryX=0.5;entryY=0;entryDx=0;entryDy=0;dashed=1;" edge="1" parent="WIyWlLk6GJQsqaUBKTNV-1" source="fE3ZmgLz-F8zHtNALtTM-74" target="fE3ZmgLz-F8zHtNALtTM-102">
          <mxGeometry relative="1" as="geometry">
            <Array as="points">
              <mxPoint x="910" y="1300" />
              <mxPoint x="1060" y="1300" />
              <mxPoint x="1060" y="1500" />
              <mxPoint x="830" y="1500" />
            </Array>
          </mxGeometry>
        </mxCell>
        <mxCell id="fE3ZmgLz-F8zHtNALtTM-74" value="Просмотр данных участников компании" style="rounded=0;whiteSpace=wrap;html=1;" vertex="1" parent="WIyWlLk6GJQsqaUBKTNV-1">
          <mxGeometry x="850" y="1160" width="120" height="60" as="geometry" />
        </mxCell>
        <mxCell id="fE3ZmgLz-F8zHtNALtTM-80" style="edgeStyle=orthogonalEdgeStyle;rounded=0;orthogonalLoop=1;jettySize=auto;html=1;exitX=1;exitY=0.5;exitDx=0;exitDy=0;entryX=0;entryY=0.5;entryDx=0;entryDy=0;" edge="1" parent="WIyWlLk6GJQsqaUBKTNV-1" source="fE3ZmgLz-F8zHtNALtTM-78" target="fE3ZmgLz-F8zHtNALtTM-79">
          <mxGeometry relative="1" as="geometry" />
        </mxCell>
        <mxCell id="fE3ZmgLz-F8zHtNALtTM-146" value="&amp;nbsp; &amp;nbsp; &amp;nbsp; &amp;nbsp; &amp;nbsp; &amp;nbsp; &amp;nbsp;&amp;nbsp;" style="edgeStyle=orthogonalEdgeStyle;rounded=0;orthogonalLoop=1;jettySize=auto;html=1;exitX=0.5;exitY=1;exitDx=0;exitDy=0;endArrow=none;startFill=0;" edge="1" parent="WIyWlLk6GJQsqaUBKTNV-1" source="fE3ZmgLz-F8zHtNALtTM-78">
          <mxGeometry x="0.4326" y="-70" relative="1" as="geometry">
            <mxPoint x="1150" y="1500" as="targetPoint" />
            <mxPoint as="offset" />
          </mxGeometry>
        </mxCell>
        <mxCell id="fE3ZmgLz-F8zHtNALtTM-78" value="Продлить подписку" style="rounded=0;whiteSpace=wrap;html=1;" vertex="1" parent="WIyWlLk6GJQsqaUBKTNV-1">
          <mxGeometry x="620" y="1380" width="120" height="60" as="geometry" />
        </mxCell>
        <mxCell id="fE3ZmgLz-F8zHtNALtTM-84" style="edgeStyle=orthogonalEdgeStyle;rounded=0;orthogonalLoop=1;jettySize=auto;html=1;exitX=1;exitY=0.5;exitDx=0;exitDy=0;entryX=0;entryY=0.5;entryDx=0;entryDy=0;" edge="1" parent="WIyWlLk6GJQsqaUBKTNV-1" source="fE3ZmgLz-F8zHtNALtTM-79" target="fE3ZmgLz-F8zHtNALtTM-83">
          <mxGeometry relative="1" as="geometry" />
        </mxCell>
        <mxCell id="fE3ZmgLz-F8zHtNALtTM-147" style="edgeStyle=orthogonalEdgeStyle;rounded=0;orthogonalLoop=1;jettySize=auto;html=1;exitX=0.5;exitY=1;exitDx=0;exitDy=0;endArrow=none;startFill=0;" edge="1" parent="WIyWlLk6GJQsqaUBKTNV-1" source="fE3ZmgLz-F8zHtNALtTM-79">
          <mxGeometry relative="1" as="geometry">
            <mxPoint x="829.9310344827586" y="1470" as="targetPoint" />
          </mxGeometry>
        </mxCell>
        <mxCell id="fE3ZmgLz-F8zHtNALtTM-79" value="Изменить данные подписки" style="rounded=0;whiteSpace=wrap;html=1;" vertex="1" parent="WIyWlLk6GJQsqaUBKTNV-1">
          <mxGeometry x="770" y="1380" width="120" height="60" as="geometry" />
        </mxCell>
        <mxCell id="fE3ZmgLz-F8zHtNALtTM-148" style="edgeStyle=orthogonalEdgeStyle;rounded=0;orthogonalLoop=1;jettySize=auto;html=1;exitX=0.5;exitY=1;exitDx=0;exitDy=0;endArrow=none;startFill=0;" edge="1" parent="WIyWlLk6GJQsqaUBKTNV-1" source="fE3ZmgLz-F8zHtNALtTM-83">
          <mxGeometry relative="1" as="geometry">
            <mxPoint x="969.9310344827586" y="1470" as="targetPoint" />
          </mxGeometry>
        </mxCell>
        <mxCell id="fE3ZmgLz-F8zHtNALtTM-83" value="Удалить оператора" style="rounded=0;whiteSpace=wrap;html=1;" vertex="1" parent="WIyWlLk6GJQsqaUBKTNV-1">
          <mxGeometry x="910" y="1380" width="120" height="60" as="geometry" />
        </mxCell>
        <mxCell id="fE3ZmgLz-F8zHtNALtTM-139" style="edgeStyle=orthogonalEdgeStyle;rounded=0;orthogonalLoop=1;jettySize=auto;html=1;exitX=0.5;exitY=1;exitDx=0;exitDy=0;entryX=0.5;entryY=0;entryDx=0;entryDy=0;" edge="1" parent="WIyWlLk6GJQsqaUBKTNV-1" source="fE3ZmgLz-F8zHtNALtTM-88" target="fE3ZmgLz-F8zHtNALtTM-123">
          <mxGeometry relative="1" as="geometry">
            <Array as="points">
              <mxPoint x="1150" y="1800" />
              <mxPoint x="250" y="1800" />
            </Array>
          </mxGeometry>
        </mxCell>
        <mxCell id="fE3ZmgLz-F8zHtNALtTM-88" value="Добавить оператора" style="rounded=0;whiteSpace=wrap;html=1;" vertex="1" parent="WIyWlLk6GJQsqaUBKTNV-1">
          <mxGeometry x="1090" y="1380" width="120" height="60" as="geometry" />
        </mxCell>
        <mxCell id="fE3ZmgLz-F8zHtNALtTM-132" style="edgeStyle=orthogonalEdgeStyle;rounded=0;orthogonalLoop=1;jettySize=auto;html=1;exitX=0.5;exitY=1;exitDx=0;exitDy=0;entryX=0.5;entryY=0;entryDx=0;entryDy=0;" edge="1" parent="WIyWlLk6GJQsqaUBKTNV-1" source="fE3ZmgLz-F8zHtNALtTM-91" target="fE3ZmgLz-F8zHtNALtTM-123">
          <mxGeometry relative="1" as="geometry">
            <Array as="points">
              <mxPoint x="-50" y="1800" />
              <mxPoint x="250" y="1800" />
            </Array>
          </mxGeometry>
        </mxCell>
        <mxCell id="fE3ZmgLz-F8zHtNALtTM-91" value="Изменить данные задания сделки" style="rounded=0;whiteSpace=wrap;html=1;" vertex="1" parent="WIyWlLk6GJQsqaUBKTNV-1">
          <mxGeometry x="-110" y="1380" width="120" height="60" as="geometry" />
        </mxCell>
        <mxCell id="fE3ZmgLz-F8zHtNALtTM-129" style="edgeStyle=orthogonalEdgeStyle;rounded=0;orthogonalLoop=1;jettySize=auto;html=1;exitX=0.5;exitY=1;exitDx=0;exitDy=0;" edge="1" parent="WIyWlLk6GJQsqaUBKTNV-1" source="fE3ZmgLz-F8zHtNALtTM-94" target="fE3ZmgLz-F8zHtNALtTM-123">
          <mxGeometry relative="1" as="geometry">
            <Array as="points">
              <mxPoint x="690" y="1800" />
              <mxPoint x="250" y="1800" />
            </Array>
          </mxGeometry>
        </mxCell>
        <mxCell id="fE3ZmgLz-F8zHtNALtTM-94" value="Расформировать компанию" style="rounded=0;whiteSpace=wrap;html=1;" vertex="1" parent="WIyWlLk6GJQsqaUBKTNV-1">
          <mxGeometry x="630" y="1560" width="120" height="60" as="geometry" />
        </mxCell>
        <mxCell id="fE3ZmgLz-F8zHtNALtTM-105" style="edgeStyle=orthogonalEdgeStyle;rounded=0;orthogonalLoop=1;jettySize=auto;html=1;exitX=0.5;exitY=1;exitDx=0;exitDy=0;entryX=0.5;entryY=0;entryDx=0;entryDy=0;" edge="1" parent="WIyWlLk6GJQsqaUBKTNV-1" source="fE3ZmgLz-F8zHtNALtTM-96" target="fE3ZmgLz-F8zHtNALtTM-94">
          <mxGeometry relative="1" as="geometry" />
        </mxCell>
        <mxCell id="fE3ZmgLz-F8zHtNALtTM-106" style="edgeStyle=orthogonalEdgeStyle;rounded=0;orthogonalLoop=1;jettySize=auto;html=1;exitX=0.5;exitY=1;exitDx=0;exitDy=0;entryX=0.5;entryY=0;entryDx=0;entryDy=0;" edge="1" parent="WIyWlLk6GJQsqaUBKTNV-1" source="fE3ZmgLz-F8zHtNALtTM-96" target="fE3ZmgLz-F8zHtNALtTM-102">
          <mxGeometry relative="1" as="geometry">
            <Array as="points">
              <mxPoint x="550" y="1500" />
              <mxPoint x="830" y="1500" />
            </Array>
          </mxGeometry>
        </mxCell>
        <mxCell id="fE3ZmgLz-F8zHtNALtTM-96" value="Отказаться от подписки" style="rounded=0;whiteSpace=wrap;html=1;" vertex="1" parent="WIyWlLk6GJQsqaUBKTNV-1">
          <mxGeometry x="490" y="1380" width="120" height="60" as="geometry" />
        </mxCell>
        <mxCell id="fE3ZmgLz-F8zHtNALtTM-128" style="edgeStyle=orthogonalEdgeStyle;rounded=0;orthogonalLoop=1;jettySize=auto;html=1;exitX=0.5;exitY=1;exitDx=0;exitDy=0;entryX=0.5;entryY=0;entryDx=0;entryDy=0;" edge="1" parent="WIyWlLk6GJQsqaUBKTNV-1" source="fE3ZmgLz-F8zHtNALtTM-102" target="fE3ZmgLz-F8zHtNALtTM-123">
          <mxGeometry relative="1" as="geometry">
            <Array as="points">
              <mxPoint x="830" y="1800" />
              <mxPoint x="250" y="1800" />
            </Array>
          </mxGeometry>
        </mxCell>
        <mxCell id="fE3ZmgLz-F8zHtNALtTM-102" value="Передать права администратора" style="rounded=0;whiteSpace=wrap;html=1;" vertex="1" parent="WIyWlLk6GJQsqaUBKTNV-1">
          <mxGeometry x="770" y="1560" width="120" height="60" as="geometry" />
        </mxCell>
        <mxCell id="fE3ZmgLz-F8zHtNALtTM-120" style="edgeStyle=orthogonalEdgeStyle;rounded=0;orthogonalLoop=1;jettySize=auto;html=1;exitX=0.5;exitY=1;exitDx=0;exitDy=0;entryX=0.5;entryY=0;entryDx=0;entryDy=0;" edge="1" parent="WIyWlLk6GJQsqaUBKTNV-1" source="fE3ZmgLz-F8zHtNALtTM-116" target="fE3ZmgLz-F8zHtNALtTM-118">
          <mxGeometry relative="1" as="geometry" />
        </mxCell>
        <mxCell id="fE3ZmgLz-F8zHtNALtTM-121" style="edgeStyle=orthogonalEdgeStyle;rounded=0;orthogonalLoop=1;jettySize=auto;html=1;exitX=0.5;exitY=1;exitDx=0;exitDy=0;entryX=0.5;entryY=0;entryDx=0;entryDy=0;" edge="1" parent="WIyWlLk6GJQsqaUBKTNV-1" source="fE3ZmgLz-F8zHtNALtTM-116" target="fE3ZmgLz-F8zHtNALtTM-117">
          <mxGeometry relative="1" as="geometry" />
        </mxCell>
        <mxCell id="fE3ZmgLz-F8zHtNALtTM-122" style="edgeStyle=orthogonalEdgeStyle;rounded=0;orthogonalLoop=1;jettySize=auto;html=1;exitX=0.5;exitY=1;exitDx=0;exitDy=0;entryX=0.5;entryY=0;entryDx=0;entryDy=0;" edge="1" parent="WIyWlLk6GJQsqaUBKTNV-1" source="fE3ZmgLz-F8zHtNALtTM-116" target="fE3ZmgLz-F8zHtNALtTM-119">
          <mxGeometry relative="1" as="geometry" />
        </mxCell>
        <mxCell id="fE3ZmgLz-F8zHtNALtTM-116" value="Просмотр интеграций" style="rounded=0;whiteSpace=wrap;html=1;" vertex="1" parent="WIyWlLk6GJQsqaUBKTNV-1">
          <mxGeometry x="420" y="1540" width="120" height="60" as="geometry" />
        </mxCell>
        <mxCell id="fE3ZmgLz-F8zHtNALtTM-124" style="edgeStyle=orthogonalEdgeStyle;rounded=0;orthogonalLoop=1;jettySize=auto;html=1;exitX=0.5;exitY=1;exitDx=0;exitDy=0;entryX=0.5;entryY=0;entryDx=0;entryDy=0;" edge="1" parent="WIyWlLk6GJQsqaUBKTNV-1" source="fE3ZmgLz-F8zHtNALtTM-117" target="fE3ZmgLz-F8zHtNALtTM-123">
          <mxGeometry relative="1" as="geometry" />
        </mxCell>
        <mxCell id="fE3ZmgLz-F8zHtNALtTM-117" value="Добавить интеграцию&lt;span style=&quot;color: rgba(0, 0, 0, 0); font-family: monospace; font-size: 0px; text-align: start; text-wrap-mode: nowrap;&quot;&gt;%3CmxGraphModel%3E%3Croot%3E%3CmxCell%20id%3D%220%22%2F%3E%3CmxCell%20id%3D%221%22%20parent%3D%220%22%2F%3E%3CmxCell%20id%3D%222%22%20value%3D%22%D0%9F%D1%80%D0%BE%D1%81%D0%BC%D0%BE%D1%82%D1%80%20%D0%B8%D0%BD%D1%82%D0%B5%D0%B3%D1%80%D0%B0%D1%86%D0%B8%D0%B9%22%20style%3D%22rounded%3D0%3BwhiteSpace%3Dwrap%3Bhtml%3D1%3B%22%20vertex%3D%221%22%20parent%3D%221%22%3E%3CmxGeometry%20x%3D%22420%22%20y%3D%221540%22%20width%3D%22120%22%20height%3D%2260%22%20as%3D%22geometry%22%2F%3E%3C%2FmxCell%3E%3C%2Froot%3E%3C%2FmxGraphModel%3E&lt;/span&gt;" style="rounded=0;whiteSpace=wrap;html=1;" vertex="1" parent="WIyWlLk6GJQsqaUBKTNV-1">
          <mxGeometry x="280" y="1660" width="120" height="60" as="geometry" />
        </mxCell>
        <mxCell id="fE3ZmgLz-F8zHtNALtTM-126" style="edgeStyle=orthogonalEdgeStyle;rounded=0;orthogonalLoop=1;jettySize=auto;html=1;exitX=0.5;exitY=1;exitDx=0;exitDy=0;" edge="1" parent="WIyWlLk6GJQsqaUBKTNV-1" source="fE3ZmgLz-F8zHtNALtTM-118" target="fE3ZmgLz-F8zHtNALtTM-123">
          <mxGeometry relative="1" as="geometry" />
        </mxCell>
        <mxCell id="fE3ZmgLz-F8zHtNALtTM-118" value="Изменить данные интеграции" style="rounded=0;whiteSpace=wrap;html=1;" vertex="1" parent="WIyWlLk6GJQsqaUBKTNV-1">
          <mxGeometry x="420" y="1660" width="120" height="60" as="geometry" />
        </mxCell>
        <mxCell id="fE3ZmgLz-F8zHtNALtTM-127" style="edgeStyle=orthogonalEdgeStyle;rounded=0;orthogonalLoop=1;jettySize=auto;html=1;exitX=0.5;exitY=1;exitDx=0;exitDy=0;entryX=0.5;entryY=0;entryDx=0;entryDy=0;" edge="1" parent="WIyWlLk6GJQsqaUBKTNV-1" source="fE3ZmgLz-F8zHtNALtTM-119" target="fE3ZmgLz-F8zHtNALtTM-123">
          <mxGeometry relative="1" as="geometry" />
        </mxCell>
        <mxCell id="fE3ZmgLz-F8zHtNALtTM-119" value="Удалить интеграцию" style="rounded=0;whiteSpace=wrap;html=1;" vertex="1" parent="WIyWlLk6GJQsqaUBKTNV-1">
          <mxGeometry x="560" y="1660" width="120" height="60" as="geometry" />
        </mxCell>
        <mxCell id="fE3ZmgLz-F8zHtNALtTM-155" style="edgeStyle=orthogonalEdgeStyle;rounded=0;orthogonalLoop=1;jettySize=auto;html=1;exitX=0.5;exitY=1;exitDx=0;exitDy=0;entryX=0.5;entryY=0;entryDx=0;entryDy=0;" edge="1" parent="WIyWlLk6GJQsqaUBKTNV-1" source="fE3ZmgLz-F8zHtNALtTM-123" target="fE3ZmgLz-F8zHtNALtTM-1">
          <mxGeometry relative="1" as="geometry" />
        </mxCell>
        <mxCell id="fE3ZmgLz-F8zHtNALtTM-123" value="Покинуть сайт" style="rounded=0;whiteSpace=wrap;html=1;" vertex="1" parent="WIyWlLk6GJQsqaUBKTNV-1">
          <mxGeometry x="190" y="1880" width="120" height="60" as="geometry" />
        </mxCell>
        <mxCell id="fE3ZmgLz-F8zHtNALtTM-157" value="" style="endArrow=none;html=1;rounded=0;" edge="1" parent="WIyWlLk6GJQsqaUBKTNV-1">
          <mxGeometry width="50" height="50" relative="1" as="geometry">
            <mxPoint x="830" y="1500" as="sourcePoint" />
            <mxPoint x="1060" y="1500" as="targetPoint" />
          </mxGeometry>
        </mxCell>
        <mxCell id="fE3ZmgLz-F8zHtNALtTM-158" value="" style="endArrow=none;html=1;rounded=0;" edge="1" parent="WIyWlLk6GJQsqaUBKTNV-1">
          <mxGeometry width="50" height="50" relative="1" as="geometry">
            <mxPoint x="1060" y="1298.730197482639" as="sourcePoint" />
            <mxPoint x="1060" y="1450" as="targetPoint" />
          </mxGeometry>
        </mxCell>
        <mxCell id="fE3ZmgLz-F8zHtNALtTM-159" value="" style="endArrow=none;html=1;rounded=0;" edge="1" parent="WIyWlLk6GJQsqaUBKTNV-1">
          <mxGeometry width="50" height="50" relative="1" as="geometry">
            <mxPoint x="1060" y="1490" as="sourcePoint" />
            <mxPoint x="1060" y="1500" as="targetPoint" />
          </mxGeometry>
        </mxCell>
      </root>
    </mxGraphModel>
  </diagram>
</mxfile>
